<?xml version="1.0" encoding="UTF-8" standalone="no"?>
<svg
   height="140px"
   width="140px"
   version="1.1"
   id="svg8"
   sodipodi:docname="Firebase_icon.svg"
   inkscape:version="1.3.1 (9b9bdc1480, 2023-11-25, custom)"
   xmlns:inkscape="http://www.inkscape.org/namespaces/inkscape"
   xmlns:sodipodi="http://sodipodi.sourceforge.net/DTD/sodipodi-0.dtd"
   xmlns:xlink="http://www.w3.org/1999/xlink"
   xmlns="http://www.w3.org/2000/svg"
   xmlns:svg="http://www.w3.org/2000/svg">
  <sodipodi:namedview
     id="namedview8"
     pagecolor="#ffffff"
     bordercolor="#000000"
     borderopacity="0.25"
     inkscape:showpageshadow="2"
     inkscape:pageopacity="0.0"
     inkscape:pagecheckerboard="0"
     inkscape:deskcolor="#d1d1d1"
     inkscape:zoom="2.9142857"
     inkscape:cx="-15.098039"
     inkscape:cy="90.245098"
     inkscape:window-width="1920"
     inkscape:window-height="1016"
     inkscape:window-x="0"
     inkscape:window-y="27"
     inkscape:window-maximized="1"
     inkscape:current-layer="svg8" />
  <defs
     id="defs4">
    <linearGradient
       id="a"
       x1="24.289503"
       x2="140.66587"
       y1="24.096534"
       y2="108.74606"
       gradientTransform="scale(0.85158188,1.1742852)"
       gradientUnits="userSpaceOnUse">
      <stop
         offset="0%"
         stop-color="#fff"
         stop-opacity=".1"
         id="stop1" />
      <stop
         offset="14%"
         stop-color="#fff"
         stop-opacity=".08"
         id="stop2" />
      <stop
         offset="61%"
         stop-color="#fff"
         stop-opacity=".02"
         id="stop3" />
      <stop
         offset="100%"
         stop-color="#fff"
         stop-opacity="0"
         id="stop4" />
    </linearGradient>
    <path
       id="b"
       d="M106.687 35.2742c-.186-1.0977-.967-2-2.0244-2.338s-2.2148-.057-3.0002.73L86.2473 49.166l-12.12-23.1455c-.5133-.9786-1.525-1.5914-2.6273-1.5914s-2.114.6128-2.6273 1.5914l-6.6277 12.656L45.62 7.5726c-.603-1.1297-1.8588-1.746-3.118-1.5297s-2.2394 1.216-2.4335 2.4827L24 111.701l42.9727 24.1654c2.6985 1.5113 5.985 1.5113 8.6836 0L119 111.701l-12.313-76.427z" />
  </defs>
  <g
     id="g12"
     transform="matrix(0.71798093,0,0,0.71798093,16.031327,18.66265)">
    <path
       fill="#ffa000"
       d="M 23.8333,111.7187 39.9655,8.4906 c 0.1972,-1.266 1.1818,-2.264 2.445,-2.4786 1.2632,-0.2146 2.522,0.4028 3.126,1.5327 L 62.22,38.662 68.87,26.0005 c 0.515,-0.979 1.5303,-1.592 2.6366,-1.592 1.1063,0 2.1215,0.613 2.6366,1.592 l 45.0227,85.718 H 23.8333 Z"
       id="path4" />
    <path
       fill="#f57c00"
       d="M 79.566,71.5074 62.2124,38.6472 23.8334,111.7187 Z"
       id="path5" />
    <path
       fill="#ffca28"
       d="m 119.1666,111.7187 -12.356,-76.4603 c -0.1867,-1.098 -0.9703,-2 -2.0315,-2.34 -1.0612,-0.34 -2.2226,-0.057 -3.0107,0.7302 l -77.935,78.069 43.1234,24.1834 c 2.708,1.512 6.006,1.512 8.714,0 l 43.4958,-24.1834 z"
       id="path6" />
    <path
       fill="#ffffff"
       fill-opacity="0.2"
       d="m 106.8105,35.2584 c -0.1867,-1.098 -0.9703,-2 -2.0315,-2.34 -1.0612,-0.34 -2.2226,-0.057 -3.0107,0.7302 L 86.3,49.1562 74.1365,26 c -0.515,-0.979 -1.5303,-1.592 -2.6366,-1.592 -1.1063,0 -2.1215,0.613 -2.6366,1.592 L 62.2133,38.6615 45.529,7.5447 C 44.924,6.4145 43.6637,5.7981 42.399,6.0143 41.1343,6.2305 40.153,7.231 39.958,8.498 L 23.8333,111.7187 h -0.052 l 0.052,0.0596 0.4245,0.2085 77.488,-77.5775 c 0.7877,-0.7915 1.952,-1.076 3.016,-0.737 1.064,0.339 1.849,1.2445 2.0338,2.3457 l 12.2518,75.775 0.1192,-0.0745 -12.356,-76.4603 z M 23.9748,111.5772 39.9655,9.228 c 0.1948,-1.267 1.1784,-2.2675 2.442,-2.4837 1.2636,-0.2162 2.524,0.4 3.13,1.5304 L 62.22,39.392 68.87,26.7305 c 0.515,-0.979 1.5303,-1.592 2.6366,-1.592 1.1063,0 2.1215,0.613 2.6366,1.592 l 11.9167,22.664 -62.0858,62.1827 z"
       id="path7" />
    <path
       fill="#a52714"
       opacity="0.2"
       d="m 75.6708,135.1722 c -2.708,1.512 -6.006,1.512 -8.714,0 l -43.0192,-24.1162 -0.1043,0.663 43.1234,24.176 c 2.708,1.512 6.006,1.512 8.714,0 l 43.4958,-24.176 -0.1117,-0.6852 -43.384,24.1387 z"
       id="path8" />
    <use
       fill="url(#a)"
       xlink:href="#b"
       id="use8"
       style="fill:url(#a)" />
  </g>
  <text
     xml:space="preserve"
     style="font-style:normal;font-variant:normal;font-weight:normal;font-stretch:normal;font-size:14.9442px;font-family:'DejaVu Sans';-inkscape-font-specification:'DejaVu Sans';fill:#4f73ff;fill-opacity:1;stroke:#131acc;stroke-width:0.332093;stroke-dasharray:none;stroke-opacity:1"
     x="8.8887558"
     y="97.98745"
     id="text12"><tspan
       sodipodi:role="line"
       id="tspan12"
       x="8.8887558"
       y="97.98745"
       style="font-style:normal;font-variant:normal;font-weight:normal;font-stretch:normal;font-family:'DejaVu Sans Mono';-inkscape-font-specification:'DejaVu Sans Mono';fill:#4f73ff;fill-opacity:1;stroke:#131acc;stroke-width:0.332093;stroke-dasharray:none;stroke-opacity:1">firebase-chat</tspan></text>
  <path
     id="path12"
     style="fill:#f1f1f1;stroke:none;stroke-width:1;fill-opacity:1;stroke-dasharray:none;vector-effect:non-scaling-stroke;-inkscape-stroke:hairline"
     d="m 90.111654,74.665989 c -2.87723,-2.742859 -4.588735,-6.181186 -4.588735,-9.91354 0,-8.970586 9.886763,-16.242684 22.082701,-16.242685 12.19594,-2e-6 22.08271,7.272097 22.08271,16.242685 0,8.970588 -9.88677,16.242686 -22.08271,16.242685 -4.41376,0 -8.525065,-0.952459 -11.974763,-2.593187 l -7.038983,3.675294 z"
     sodipodi:nodetypes="cssssccc" />
  <text
     xml:space="preserve"
     style="font-style:normal;font-variant:normal;font-weight:normal;font-stretch:normal;font-size:16.849px;font-family:'DejaVu Sans Mono';-inkscape-font-specification:'DejaVu Sans Mono';fill:#131acc;fill-opacity:1;stroke:#131acc;stroke-width:0.374423;stroke-dasharray:none;stroke-opacity:1"
     x="92.402039"
     y="66.006386"
     id="text13"><tspan
       sodipodi:role="line"
       id="tspan13"
       x="92.402039"
       y="66.006386"
       style="stroke-width:0.374423">...</tspan></text>
</svg>
